<?xml version="1.0" encoding="iso-8859-1"?>
<!-- Generator: Adobe Illustrator 19.0.0, SVG Export Plug-In . SVG Version: 6.00 Build 0)  -->
<svg version="1.1" id="Layer_1" xmlns="http://www.w3.org/2000/svg" xmlns:xlink="http://www.w3.org/1999/xlink" x="0px" y="0px"
	 viewBox="0 0 512.009 512.009" style="enable-background:new 0 0 512.009 512.009;" xml:space="preserve">
<g>
	<g>
		<g>
			<path d="M128.259,34.133c4.71,0,8.533-3.823,8.533-8.533c0-4.71-3.823-8.533-8.533-8.533h-0.094c-4.71,0-8.482,3.823-8.482,8.533
				C119.683,30.31,123.54,34.133,128.259,34.133z"/>
			<path d="M350.125,51.2c4.71,0,8.533-3.823,8.533-8.533c0-4.71-3.823-8.533-8.533-8.533h-0.094c-4.71,0-8.482,3.823-8.482,8.533
				C341.549,47.377,345.406,51.2,350.125,51.2z"/>
			<path d="M350.45,396.518c0.981,4.617,5.504,7.543,10.121,6.571l58.812-12.501l1.502,7.049l-9.865,2.765
				c-4.54,1.28-7.177,5.999-5.905,10.53c1.058,3.763,4.489,6.229,8.209,6.229c0.768,0,1.553-0.111,2.313-0.324l8.806-2.475
				l2.039,9.609c0.862,4.011,4.403,6.758,8.346,6.758c0.589,0,1.178-0.06,1.783-0.188c4.608-0.981,7.544-5.513,6.571-10.121
				l-7.108-33.391c-1.954-9.199-10.965-15.095-20.233-13.141l-58.82,12.51C352.412,387.379,349.477,391.91,350.45,396.518z"/>
			<path d="M192.003,25.6c7.057,0,12.791-5.743,12.791-12.8S199.06,0,192.003,0c-7.066,0-12.8,5.743-12.8,12.8
				S184.937,25.6,192.003,25.6z"/>
			<path d="M255.994,357.419c56.474,0,102.409-45.935,102.409-102.4c0-4.71-3.823-8.533-8.533-8.533
				c-4.719,0-8.533,3.823-8.533,8.533c0,47.053-38.289,85.333-85.342,85.333c-4.71,0-8.525,3.823-8.525,8.533
				C247.469,353.596,251.284,357.419,255.994,357.419z"/>
			<path d="M119.469,102.4c9.404,0,17.067-7.654,17.067-17.067c0-9.412-7.663-17.067-17.067-17.067
				c-9.412,0-17.067,7.654-17.067,17.067C102.403,94.746,110.057,102.4,119.469,102.4z"/>
			<path d="M177.428,476.902l-84.821,18.039l-1.212-5.7l10.3-2.893c4.54-1.28,7.177-5.99,5.905-10.522
				c-1.271-4.54-6.025-7.159-10.522-5.914l-9.233,2.603l-2.321-10.965c-0.973-4.608-5.513-7.586-10.121-6.579
				c-4.617,0.981-7.552,5.513-6.579,10.121l7.091,33.399c0.947,4.463,3.576,8.277,7.407,10.761c2.799,1.818,5.99,2.756,9.25,2.756
				c1.195,0,2.389-0.128,3.584-0.384l84.813-18.031c4.617-0.981,7.552-5.513,6.579-10.121
				C186.558,478.857,182.002,475.896,177.428,476.902z"/>
			<path d="M430.04,444.851l-137.335-29.193c-4.617-0.99-9.139,1.954-10.121,6.571c-0.973,4.608,1.963,9.139,6.571,10.121
				l137.327,29.193l-1.766,8.337l-34.321-6.869c-4.625-0.922-9.122,2.065-10.044,6.69c-0.93,4.625,2.074,9.122,6.69,10.044
				l34.125,6.827l-1.775,8.363L85.524,423.962l2.15-10.112l15.036,3.285c0.614,0.137,1.22,0.196,1.835,0.196
				c3.917,0,7.458-2.722,8.32-6.707c1.007-4.599-1.911-9.156-6.511-10.163l-15.138-3.311l1.391-6.579l50.688,10.778
				c4.582,0.99,9.131-1.963,10.121-6.571c0.973-4.617-1.963-9.148-6.579-10.121l-50.688-10.769
				c-9.148-1.946-18.27,3.942-20.233,13.141l-7.083,33.382c-1.971,9.199,3.925,18.287,13.133,20.25l333.884,70.972
				c1.186,0.247,2.364,0.367,3.533,0.367c7.876,0,14.984-5.513,16.7-13.525l3.507-16.478c0.034-0.145,0.128-0.256,0.162-0.41
				c0.026-0.119-0.017-0.222,0-0.341l3.43-16.145C445.136,455.902,439.248,446.814,430.04,444.851z"/>
			<path d="M210.597,432.572c-1.007,4.599,1.903,9.156,6.511,10.163l84.267,18.483c0.606,0.137,1.22,0.205,1.835,0.205
				c3.917,0,7.45-2.722,8.32-6.707c1.016-4.599-1.894-9.156-6.502-10.163l-84.267-18.483
				C216.229,425.045,211.604,427.964,210.597,432.572z"/>
			<path d="M255.994,408.619c81.826,0,153.609-71.774,153.609-153.6c0-70.639-30.336-111.582-62.455-154.931
				C326.744,72.55,305.658,44.083,289.47,5.248c-1.092-2.62-3.422-4.531-6.212-5.086c-2.782-0.546-5.675,0.324-7.689,2.338
				c-29.201,29.201-46.669,79.957-55.33,111.992c-3.618-13.943-6.903-32.7-6.903-54.758c0-3.447-2.082-6.562-5.274-7.885
				c-3.183-1.323-6.844-0.589-9.293,1.852c-43.964,43.964-96.367,114.577-96.367,201.318
				C102.403,336.845,174.177,408.619,255.994,408.619z M197.131,80.119c3.499,41.114,16.469,67.49,17.101,68.762
				c1.638,3.285,5.163,5.137,8.841,4.634c3.635-0.521,6.537-3.302,7.185-6.92c0.154-0.845,14.686-78.916,48.905-122.436
				c16.043,34.492,35.448,60.68,54.272,86.084c31.71,42.803,59.102,79.77,59.102,144.777c0,71.458-65.075,136.533-136.542,136.533
				c-71.45,0-136.525-65.075-136.525-136.533C119.469,182.844,159.004,122.001,197.131,80.119z"/>
			<path d="M218.738,350.43c1.024,0.401,2.074,0.589,3.115,0.589c3.405,0,6.63-2.057,7.945-5.436
				c1.715-4.386-0.452-9.335-4.838-11.051c-11.085-4.326-20.983-10.829-29.448-19.319c-3.328-3.337-8.73-3.354-12.066-0.026
				c-3.337,3.337-3.354,8.738-0.017,12.075C193.564,337.434,205.451,345.233,218.738,350.43z"/>
		</g>
	</g>
</g>
<g>
</g>
<g>
</g>
<g>
</g>
<g>
</g>
<g>
</g>
<g>
</g>
<g>
</g>
<g>
</g>
<g>
</g>
<g>
</g>
<g>
</g>
<g>
</g>
<g>
</g>
<g>
</g>
<g>
</g>
</svg>
